<?xml version="1.0" standalone="no"?>
<!DOCTYPE svg PUBLIC "-//W3C//DTD SVG 20010904//EN"
 "http://www.w3.org/TR/2001/REC-SVG-20010904/DTD/svg10.dtd">
<svg version="1.0" xmlns="http://www.w3.org/2000/svg"
 width="1024.000000pt" height="1536.000000pt" viewBox="0 0 1024.000000 1536.000000"
 preserveAspectRatio="xMidYMid meet">

<g transform="translate(0.000000,1536.000000) scale(0.100000,-0.100000)"
fill="none" stroke="#000000" stroke-width="11">
<path d="M6702 14716 c-16 -19 -38 -61 -49 -93 -16 -53 -18 -96 -17 -483 1
-322 6 -458 18 -560 9 -74 23 -211 31 -305 23 -255 43 -400 70 -500 13 -49 29
-120 35 -157 12 -79 80 -260 99 -266 21 -7 8 70 -23 140 -14 31 -32 96 -41
145 -8 48 -24 119 -35 158 -24 83 -42 221 -70 515 -11 118 -24 249 -30 290 -6
41 -13 260 -17 485 -5 365 -4 419 11 487 12 52 27 89 47 114 16 21 28 42 26
48 -7 21 -25 15 -55 -18z"/>
<path d="M4777 14671 c-55 -59 -82 -111 -135 -261 -67 -187 -115 -551 -132
-987 -16 -433 -14 -531 15 -674 25 -122 91 -289 114 -289 24 0 20 26 -14 98
-58 122 -85 276 -85 481 1 590 55 1124 138 1357 52 145 81 200 136 255 25 26
46 52 46 58 0 26 -41 7 -83 -38z"/>
<path d="M6817 14671 c-36 -43 -40 -122 -32 -601 6 -381 10 -448 46 -813 46
-465 87 -695 144 -814 19 -40 38 -73 44 -73 23 0 21 25 -9 88 -52 111 -95 351
-140 791 l-40 385 -2 492 -3 492 23 31 c12 16 22 35 22 41 0 20 -29 10 -53
-19z"/>
<path d="M4668 14643 c-110 -115 -198 -439 -233 -853 -7 -85 -21 -225 -31
-310 -13 -110 -19 -230 -19 -410 l0 -255 32 -114 c31 -109 54 -154 70 -138 4
4 -6 56 -22 115 -15 59 -32 130 -37 157 -15 76 -3 494 20 710 12 105 26 240
31 300 18 191 68 451 107 560 47 128 67 167 110 215 20 22 33 44 29 50 -10 16
-19 12 -57 -27z"/>
<path d="M4475 12123 c-171 -14 -252 -28 -370 -65 -253 -79 -415 -181 -621
-390 -99 -100 -126 -136 -239 -316 -224 -359 -401 -772 -632 -1476 -79 -240
-116 -379 -223 -830 -134 -563 -151 -657 -199 -1096 -38 -352 -38 -393 4 -602
41 -204 64 -273 130 -400 68 -130 209 -274 241 -247 11 9 25 1 64 -31 31 -26
56 -40 66 -36 25 10 13 30 -53 84 -219 182 -333 574 -313 1070 12 288 19 363
45 502 13 69 31 181 40 250 16 129 105 534 157 720 16 58 60 218 98 355 75
276 127 424 313 900 68 176 128 331 132 345 4 14 56 106 114 205 59 99 129
220 156 268 126 226 471 521 691 590 153 48 235 51 947 38 359 -6 798 -20 977
-31 179 -11 381 -22 450 -25 217 -11 675 -72 765 -102 334 -111 616 -461 683
-849 31 -177 44 -325 44 -517 1 -240 -28 -673 -62 -922 -16 -115 -36 -275 -45
-355 -8 -80 -31 -239 -50 -355 -43 -257 -139 -895 -155 -1025 -6 -52 -18 -120
-25 -150 -8 -30 -37 -181 -65 -335 -29 -154 -62 -328 -76 -388 -13 -59 -30
-162 -39 -230 -9 -67 -33 -189 -55 -272 -44 -169 -66 -284 -75 -397 -6 -74 -6
-78 13 -78 24 0 27 11 42 153 5 54 31 177 56 275 25 97 52 229 60 292 8 63 28
176 44 250 15 74 49 250 75 390 26 140 53 280 60 310 8 30 21 111 30 180 21
163 104 710 154 1015 22 132 43 274 46 315 4 41 20 172 36 290 47 344 64 553
76 920 10 331 -32 684 -102 855 -52 126 -116 241 -183 328 -112 145 -307 289
-465 343 -104 36 -548 90 -882 109 -148 8 -336 20 -418 25 -356 25 -1600 39
-1732 20 -38 -6 -105 -22 -149 -36 -233 -73 -579 -373 -720 -624 -33 -58 -101
-175 -152 -260 -69 -117 -108 -196 -157 -325 -36 -94 -105 -273 -155 -400
-122 -312 -174 -463 -222 -640 -23 -82 -66 -238 -96 -346 -83 -298 -162 -655
-189 -849 -13 -96 -31 -206 -39 -245 -25 -113 -49 -506 -42 -695 11 -297 92
-602 202 -755 51 -72 47 -85 -7 -27 -129 136 -191 280 -250 577 -29 148 -31
170 -25 285 17 303 82 782 141 1031 184 778 210 877 296 1144 227 701 413
1136 643 1505 106 170 144 221 220 298 253 258 541 402 876 437 211 23 673 19
1196 -9 247 -14 550 -30 674 -36 575 -28 916 -71 1040 -131 203 -97 394 -227
486 -329 123 -135 220 -316 278 -517 63 -221 65 -724 5 -1303 -28 -273 -193
-1449 -223 -1597 -14 -68 -41 -241 -60 -385 -24 -178 -58 -369 -105 -589 -39
-179 -82 -391 -96 -470 -14 -79 -44 -205 -65 -279 -75 -260 -132 -502 -120
-514 6 -6 13 -6 19 -1 5 6 31 93 56 195 25 102 64 246 85 320 21 74 48 189 60
255 11 66 54 276 95 466 51 237 85 430 109 610 19 145 47 319 60 387 32 152
197 1345 225 1617 44 427 53 729 33 1015 -22 299 -85 488 -232 694 -131 184
-257 286 -506 413 -153 78 -164 82 -299 107 -161 29 -524 60 -970 81 -170 8
-467 24 -660 35 -312 18 -849 25 -990 13z"/>
<path d="M3835 10354 c-117 -49 -137 -61 -199 -122 -138 -136 -277 -385 -358
-642 -97 -310 -149 -493 -168 -599 -12 -63 -39 -187 -60 -276 -25 -105 -54
-273 -81 -476 -41 -301 -43 -325 -43 -579 0 -171 4 -299 13 -360 20 -139 75
-332 126 -436 55 -115 200 -334 220 -334 27 0 16 27 -60 139 -208 308 -276
588 -262 1075 8 263 68 727 126 966 21 91 49 217 61 280 33 177 174 638 246
801 58 133 191 341 263 413 48 47 76 64 191 114 121 52 158 78 125 88 -5 2
-68 -21 -140 -52z"/>
<path d="M3869 10246 c-31 -13 -83 -42 -116 -64 -54 -37 -67 -53 -121 -149
-98 -177 -196 -381 -240 -498 -23 -60 -64 -202 -92 -314 -28 -112 -58 -220
-66 -239 -16 -40 -59 -271 -133 -717 -46 -283 -49 -314 -56 -548 l-6 -249 41
-198 c35 -166 52 -226 108 -367 62 -153 75 -177 151 -276 76 -99 108 -124 105
-84 -1 8 -36 60 -78 114 -67 88 -84 119 -141 262 -53 132 -73 198 -106 354
l-41 192 7 250 c6 241 8 262 61 580 81 489 103 602 129 685 13 41 44 156 69
255 71 284 156 490 324 780 64 111 116 157 224 197 42 15 58 26 58 39 0 24
-11 23 -81 -5z"/>
<path d="M7025 10190 c-4 -6 16 -35 44 -65 59 -65 113 -173 136 -270 22 -97
33 -556 16 -687 -31 -231 -133 -916 -155 -1038 -14 -74 -30 -184 -35 -245 -6
-60 -36 -238 -66 -395 -30 -157 -78 -413 -105 -570 -71 -402 -95 -512 -156
-704 -30 -92 -51 -172 -48 -177 16 -27 34 4 76 134 63 190 79 259 143 617 29
168 83 458 119 645 36 187 70 392 76 455 7 63 21 162 31 220 19 102 120 777
155 1030 23 172 14 614 -16 732 -25 100 -89 226 -143 283 -44 45 -61 53 -72
35z"/>
<path d="M7000 10058 c0 -7 13 -26 30 -43 18 -18 46 -72 70 -133 33 -85 42
-123 51 -218 10 -108 8 -138 -26 -432 -83 -728 -182 -1352 -340 -2137 -41
-203 -81 -408 -90 -455 -24 -139 -91 -408 -125 -503 -23 -61 -29 -92 -22 -99
6 -6 14 -8 20 -4 27 16 129 386 167 606 9 47 47 240 85 430 156 773 261 1432
344 2165 33 288 35 318 25 430 -9 100 -17 137 -50 225 -29 74 -51 116 -77 143
-36 37 -62 48 -62 25z"/>
<path d="M2309 6596 c-2 -2 -51 -9 -109 -16 -150 -16 -253 -37 -350 -72 -344
-122 -463 -182 -633 -318 -131 -105 -181 -160 -302 -331 -139 -196 -203 -351
-241 -584 -21 -128 -29 -411 -14 -488 16 -81 71 -190 128 -252 56 -61 71 -70
85 -56 7 7 -7 29 -49 74 -42 44 -70 86 -94 142 l-35 80 0 185 c0 179 16 356
37 409 5 14 19 62 29 106 31 125 117 275 279 485 70 91 75 97 214 208 144 116
293 193 536 277 162 56 220 71 325 85 216 27 235 31 235 51 0 17 -28 27 -41
15z"/>
<path d="M2855 6579 c-701 -57 -992 -129 -1322 -326 -157 -94 -253 -193 -398
-413 -161 -243 -218 -357 -260 -524 -56 -216 -65 -360 -33 -491 14 -61 79
-195 94 -195 24 0 23 16 -5 70 -84 164 -89 328 -20 605 39 153 109 291 265
526 175 262 280 352 570 490 215 102 524 169 939 204 340 28 340 28 340 45 0
19 -35 21 -170 9z"/>
<path d="M6897 5964 c-3 -3 3 -31 15 -62 40 -108 5 -279 -89 -431 -166 -268
-493 -663 -718 -868 -55 -50 -136 -128 -180 -173 -91 -93 -230 -203 -520 -410
-223 -160 -319 -215 -480 -276 -89 -34 -112 -39 -118 -28 -6 11 -45 14 -185
14 -262 0 -602 35 -1132 116 -399 61 -502 83 -995 220 -410 114 -636 187 -900
291 -269 106 -442 192 -529 265 -48 40 -61 46 -73 36 -13 -10 -7 -19 38 -60
205 -181 928 -445 1854 -676 440 -110 1351 -232 1735 -232 139 0 165 -2 175
-16 11 -15 21 -13 108 20 173 64 313 142 512 284 302 215 391 286 535 426 74
73 166 159 204 192 138 118 466 502 618 724 145 212 183 299 194 448 5 75 3
95 -16 145 -19 52 -36 68 -53 51z"/>
<path d="M6790 5903 c0 -10 9 -42 20 -71 11 -29 20 -60 20 -70 0 -38 -101
-222 -185 -337 -249 -340 -533 -644 -985 -1056 -199 -181 -649 -483 -822 -553
-39 -15 -49 -33 -25 -42 22 -8 165 58 262 120 263 170 516 356 644 475 531
487 925 935 1085 1235 69 128 76 177 37 264 -23 51 -51 70 -51 35z"/>
<path d="M7210 5837 c0 -7 5 -18 11 -24 5 -5 15 -42 20 -80 9 -65 7 -79 -22
-179 -45 -155 -122 -287 -312 -534 -171 -222 -463 -535 -650 -698 -195 -170
-486 -385 -668 -495 -251 -151 -385 -205 -659 -268 -177 -40 -203 -50 -183
-70 14 -14 338 61 478 112 204 74 449 218 719 421 266 200 344 269 597 525
188 190 267 279 394 443 87 113 179 241 203 285 25 44 51 89 58 100 8 11 32
77 54 148 41 127 41 128 30 210 -11 80 -29 117 -57 117 -7 0 -13 -6 -13 -13z"/>
<path d="M7347 5654 c-4 -4 -7 -20 -7 -34 0 -15 -15 -86 -34 -158 -45 -173
-100 -275 -283 -521 -130 -174 -171 -219 -416 -463 -289 -287 -483 -462 -636
-572 -306 -221 -505 -331 -792 -435 -145 -52 -182 -62 -300 -75 -74 -9 -140
-16 -146 -16 -7 0 -13 -9 -13 -20 0 -11 3 -20 8 -20 24 1 263 30 292 36 69 14
357 126 480 186 118 58 390 232 545 348 138 104 284 239 582 535 274 273 313
317 437 483 167 226 233 346 275 502 32 121 44 220 25 227 -5 2 -13 0 -17 -3z"/>
<path d="M575 4881 c-7 -13 11 -190 26 -246 17 -61 44 -107 104 -178 58 -70
119 -103 136 -76 11 18 4 26 -34 39 -41 14 -111 97 -148 175 -21 45 -31 89
-41 174 -12 106 -25 140 -43 112z"/>
<path d="M904 4566 c-17 -45 156 -195 321 -278 218 -110 669 -279 965 -362
426 -119 612 -166 776 -195 94 -17 245 -48 335 -70 368 -88 954 -151 1212
-131 177 14 226 21 233 32 15 24 -21 26 -176 12 -140 -14 -190 -14 -325 -4
-410 30 -656 64 -917 125 -103 24 -264 58 -358 75 -174 31 -238 47 -700 175
-380 106 -874 292 -1081 407 -83 47 -185 128 -227 181 -39 48 -50 55 -58 33z"/>
</g>
</svg>
